<?xml version="1.0" standalone="no"?>
<!DOCTYPE svg PUBLIC "-//W3C//DTD SVG 20010904//EN"
 "http://www.w3.org/TR/2001/REC-SVG-20010904/DTD/svg10.dtd">
<svg version="1.0" xmlns="http://www.w3.org/2000/svg"
 width="1200.000000pt" height="1200.000000pt" viewBox="0 0 1200.000000 1200.000000"
 preserveAspectRatio="xMidYMid meet">

<g transform="translate(0.000000,1200.000000) scale(0.100000,-0.100000)"
fill="#000000" stroke="none">
<path d="M5670 11994 c-819 -48 -1593 -253 -2325 -614 -933 -461 -1711 -1137
-2307 -2005 -471 -686 -805 -1509 -947 -2336 -68 -393 -85 -611 -85 -1044 0
-374 11 -540 55 -850 279 -1949 1502 -3640 3269 -4519 670 -333 1330 -521
2115 -603 241 -25 858 -25 1105 0 786 80 1451 270 2130 608 1664 830 2858
2400 3209 4219 333 1724 -97 3500 -1178 4865 -555 701 -1240 1259 -2031 1654
-673 336 -1350 530 -2115 606 -153 16 -741 28 -895 19z m785 -414 c1363 -118
2616 -708 3550 -1671 1238 -1278 1794 -3019 1525 -4771 -280 -1817 -1450
-3390 -3115 -4188 -616 -296 -1252 -467 -1970 -531 -205 -18 -731 -16 -940 5
-724 71 -1345 244 -1970 551 -1685 827 -2847 2448 -3084 4305 -34 262 -44 424
-44 715 0 303 11 479 49 763 211 1580 1096 2998 2430 3891 861 577 1807 888
2869 945 116 6 571 -3 700 -14z"/>
<path d="M3883 9171 c-135 -37 -242 -101 -352 -211 -160 -160 -278 -398 -333
-673 -33 -162 -33 -462 0 -624 146 -725 698 -1096 1193 -801 132 79 280 250
367 424 47 92 99 252 124 377 33 162 33 462 0 624 -88 438 -328 763 -640 870
-105 36 -256 42 -359 14z"/>
<path d="M7803 9170 c-133 -35 -242 -100 -352 -210 -160 -160 -278 -398 -333
-673 -33 -162 -33 -462 0 -624 168 -837 868 -1174 1365 -659 152 158 265 392
319 659 33 162 33 462 0 624 -79 391 -280 697 -549 832 -136 69 -307 88 -450
51z"/>
<path d="M1435 5173 c-75 -39 -115 -104 -115 -185 0 -101 107 -467 221 -755
72 -182 238 -519 334 -678 554 -920 1378 -1619 2365 -2008 1245 -491 2640
-440 3845 142 1062 513 1896 1395 2349 2485 120 288 246 705 246 814 0 117
-86 202 -205 202 -63 0 -104 -17 -153 -64 -35 -33 -39 -44 -107 -295 -396
-1455 -1567 -2626 -3036 -3035 -1037 -289 -2135 -188 -3104 284 -1142 558
-1985 1588 -2310 2823 -25 92 -49 175 -54 185 -14 26 -62 68 -98 86 -41 21
-138 20 -178 -1z"/>
</g>
</svg>
